<?xml version="1.0" encoding="utf-8"?>
<!-- Generator: Adobe Illustrator 25.2.1, SVG Export Plug-In . SVG Version: 6.00 Build 0)  -->
<svg version="1.1" id="Camada_1" xmlns="http://www.w3.org/2000/svg" xmlns:xlink="http://www.w3.org/1999/xlink" x="0px" y="0px"
	 viewBox="0 0 1000 1000" style="enable-background:new 0 0 1000 1000;" xml:space="preserve">
<style type="text/css">
	.st0{fill:#1D1D1B;}
	.st1{fill:#FFFFFF;stroke:#1D1D1B;stroke-miterlimit:10;}
	.st2{opacity:0.3;fill:#1D1D1B;}
</style>
<g>
	<path class="st0" d="M-1872.6-4084.39l172.6-116.5l172.58,116.5c8.4,5.66,17.93,8.4,27.38,8.4c15.74,0,31.17-7.58,40.62-21.6
		c15.16-22.42,9.26-52.87-13.16-68.01l-200.02-135c-16.56-11.17-38.24-11.17-54.8,0l-200,135c-22.44,15.14-28.34,45.59-13.2,68.01
		C-1925.43-4075.16-1895-4069.28-1872.6-4084.39z"/>
	<path class="st0" d="M-1527.42-3715.61L-1700-3599.1l-172.6-116.5c-22.4-15.12-52.83-9.24-68.01,13.2
		c-15.14,22.42-9.24,52.87,13.2,68.01l200,135c8.28,5.59,17.83,8.38,27.4,8.38s19.12-2.79,27.4-8.38l200.02-135
		c22.42-15.14,28.32-45.59,13.16-68.01C-1474.53-3724.86-1505.04-3730.7-1527.42-3715.61z"/>
	<path class="st0" d="M-1420-4068.98c-27.07,0-48.98,21.93-48.98,48.98v71.02h-462.03V-4020c0-27.05-21.93-48.98-48.98-48.98
		s-48.98,21.93-48.98,48.98v240c0,27.05,21.93,48.98,48.98,48.98s48.98-21.93,48.98-48.98v-71.02h462.03v71.02
		c0,27.05,21.91,48.98,48.98,48.98s48.98-21.93,48.98-48.98v-240C-1371.02-4047.05-1392.93-4068.98-1420-4068.98z"/>
</g>
<g>
	<path class="st0" d="M-3565.39-3606.77l-170.38-53.24l170.38-53.24c25.82-8.07,40.21-35.55,32.15-61.37
		c-8.05-25.8-35.57-40.25-61.37-32.15l-305.39,95.43l-305.39-95.43c-25.82-8.12-53.3,6.31-61.37,32.15
		c-8.07,25.82,6.33,53.3,32.15,61.37l170.38,53.24l-170.38,53.24c-25.82,8.07-40.21,35.55-32.15,61.37
		c6.54,20.96,25.88,34.39,46.74,34.39c4.84,0,9.77-0.72,14.63-2.25l305.39-95.43l305.39,95.43c4.86,1.52,9.79,2.25,14.63,2.25
		c20.86,0,40.2-13.44,46.74-34.39C-3525.18-3571.22-3539.57-3598.7-3565.39-3606.77z"/>
	<path class="st0" d="M-4100-4031.03h399.26c31.76,1.04,31.76,22.81,31.76,31.02s0,29.98-31.02,31.02h-120
		c-94.63,0-128.98,77.13-128.98,128.98v40c0,27.05,21.93,48.98,48.98,48.98s48.98-21.93,48.98-48.98v-39.26
		c1.04-31.76,22.81-31.76,31.02-31.76h120c51.86,0,128.98-34.36,128.98-128.98s-77.13-128.98-128.98-128.98h-399.26
		c-31.76-1.04-31.76-22.81-31.76-31.02s0-29.98,31.02-31.02h400c27.05,0,48.98-21.93,48.98-48.98s-21.93-48.98-48.98-48.98h-400
		c-51.86,0-128.98,34.36-128.98,128.98S-4151.86-4031.03-4100-4031.03z"/>
</g>
<path class="st0" d="M700-3980c-6.43,0-12.6,0.96-18.6,2.39l-301.52-241.22c0-0.4,0.12-0.77,0.12-1.17c0-44.18-35.82-80-80-80
	s-80,35.82-80,80c0,25.63,12.27,48.18,31.02,62.82v194.35c-18.75,14.64-31.02,37.2-31.02,62.83c0,25.63,12.27,48.18,31.02,62.82
	v194.35c-18.75,14.64-31.02,37.2-31.02,62.83c0,44.18,35.82,80,80,80s80-35.82,80-80c0-25.63-12.27-48.19-31.02-62.83v-194.35
	c5.17-4.04,9.8-8.67,13.84-13.84h274.35c14.64,18.75,37.2,31.02,62.82,31.02c44.18,0,80-35.82,80-80
	C780-3944.18,744.18-3980,700-3980z M362.83-3948.98c-4.04-5.17-8.67-9.8-13.84-13.84v-155.25l211.37,169.1H362.83z"/>
<g>
	<path class="st0" d="M-3840-2411h-240c-27.05,0-48.98-21.93-48.98-48.98v-120c0-27.05,21.93-48.98,48.98-48.98
		s48.98,21.93,48.98,48.98v71.02H-3840c21.04-0.43,71.02-8.2,71.02-71.02s-49.98-70.59-71.48-71.02H-3960
		c-67.93,0-168.98-45-168.98-168.98s101.05-168.98,168.98-168.98h151.02v-33.09c-19.26,15.78-47.7,14.63-65.66-3.28
		c-19.12-19.14-19.12-50.16,0-69.3l80-80c14.02-13.98,35.12-18.24,53.4-10.61c18.3,7.58,30.23,25.45,30.23,45.25v200
		c0,27.05-21.93,48.98-48.98,48.98h-200c-21.04,0.43-71.02,8.2-71.02,71.02s49.98,70.59,71.48,71.02H-3840
		c67.93,0,168.98,45,168.98,168.98S-3772.07-2411-3840-2411z"/>
</g>
<path class="st0" d="M-600-4288.98c-203.48,0-368.98,165.53-368.98,368.98v360c0,27.05,21.91,48.98,48.98,48.98h640
	c27.07,0,48.98-21.93,48.98-48.98v-360C-231.02-4123.46-396.52-4288.98-600-4288.98z M-328.98-3608.98h-422.03v-62.03H-440
	c27.07,0,48.98-21.93,48.98-48.98s-21.91-48.98-48.98-48.98h-231.02v-62.03H-440c27.07,0,48.98-21.93,48.98-48.98
	s-21.91-48.98-48.98-48.98h-111.02v-62.03H-440c27.07,0,48.98-21.93,48.98-48.98s-21.91-48.98-48.98-48.98h-160
	c-27.07,0-48.98,21.93-48.98,48.98v111.02H-720c-27.07,0-48.98,21.93-48.98,48.98v111.02H-800c-27.07,0-48.98,21.93-48.98,48.98
	v111.02h-22.03V-3920c0-149.43,121.56-271.02,271.02-271.02s271.02,121.58,271.02,271.02V-3608.98z"/>
<path class="st0" d="M111.67,741.55"/>
<path class="st0" d="M-2570.64-2647.05c-2.27,0-4.21,0.99-6.4,1.29c-2.19-0.3-4.13-1.29-6.4-1.29h-102.97h-164.69
	c-12.44,0-22.58-10.14-22.58-22.58v-16.88c0-12.44,10.14-22.58,22.58-22.58h112.44h87.99h72.01c27.05,0,48.98-21.93,48.98-48.98
	v-312.44c0-66.46-54.06-120.55-120.53-120.55h-16.89c-66.46,0-120.55,54.08-120.55,120.55v41.62l-45.96-97.09
	c-28.42-60.06-100.39-85.8-160.53-57.38l-15.27,7.23c-60.06,28.44-85.8,100.45-57.38,160.53l120.94,255.47
	c-15.92,20.43-25.8,45.78-25.8,73.63v16.88c0,47.41,27.76,88.12,67.67,107.79c17.03,89.13,95.31,156.76,189.32,156.76
	c106.43,0,192.99-86.56,192.99-192.99C-2521.66-2625.11-2543.59-2647.05-2570.64-2647.05z M-2689.66-3070.5
	c0-12.44,10.14-22.58,22.58-22.58h16.89c12.44,0,22.56,10.14,22.56,22.58v263.46h-23.03h-39V-3070.5z M-2967.48-3087.57l15.25-7.23
	c3.12-1.46,6.41-2.17,9.63-2.17c8.48,0,16.6,4.79,20.45,12.91l112.71,238.12l-56.05,26.54l-112.73-238.11
	C-2983.53-3068.77-2978.71-3082.24-2967.48-3087.57z M-2714.64-2503.04c-34.4,0-64.32-18.57-81-46.04h109.24h52.75
	C-2650.33-2521.61-2680.24-2503.04-2714.64-2503.04z"/>
<g>
	<path class="st0" d="M-1420.01-2720.41h-19.57V-2740c0-27.05-21.91-48.98-48.98-48.98s-48.98,21.93-48.98,48.98v19.59h-19.61
		c-27.07,0-48.98,21.93-48.98,48.98s21.91,48.98,48.98,48.98h19.61v19.59c0,27.05,21.91,48.98,48.98,48.98s48.98-21.93,48.98-48.98
		v-19.59h19.57c27.07,0,48.98-21.93,48.98-48.98S-1392.94-2720.41-1420.01-2720.41z"/>
	<path class="st0" d="M-1699.99-2708.98c-27.05,0-48.98,21.93-48.98,48.98v71.02h-150.27c-31.76-1.04-31.76-22.81-31.76-31.02
		s0-29.98,31.02-31.02h40c51.86,0,128.98-34.36,128.98-128.98c0-68.75-52.7-108.46-114.32-122.81
		c17.56-63.91,74.22-108.2,145.33-108.2c86.07,0,151,64.92,151,151.02c0,27.05,21.91,48.98,48.98,48.98s48.98-21.93,48.98-48.98
		c0-139.63-109.34-248.98-248.96-248.98s-248.98,109.36-248.98,248.98c0,26.89,21.89,48.77,48.79,48.98
		c0.7,0.02,71.21,3.34,71.21,31.02c0,8.2,0,29.98-31.02,31.02h-40c-51.86,0-128.98,34.36-128.98,128.98s77.13,128.98,128.98,128.98
		h200c27.05,0,48.98-21.93,48.98-48.98v-120C-1651.01-2687.05-1672.94-2708.98-1699.99-2708.98z"/>
</g>
<g>
	<path class="st0" d="M-574.3-3137.97c-140.43,0-254.69,114.26-254.69,254.71c0,27.05,21.91,48.98,48.98,48.98h67.66
		c20.51,0.82,20.51,11.66,20.51,18.69c-0.82,20.47-11.68,20.47-19.61,20.47H-780c-27.07,0-48.98,21.93-48.98,48.98
		s21.91,48.98,48.98,48.98h67.93c20.23,0.92,20.23,11.7,20.23,18.71c-0.82,20.47-11.68,20.47-19.61,20.47H-780
		c-0.11,0-0.2,0.06-0.3,0.06c-92.85,0.59-168.68,15.96-168.68,168.92c0,27.05,21.91,48.98,48.98,48.98s48.98-21.93,48.98-48.98
		c0-71.02,0-71.02,76.72-71.02h62.85c86.25,0,117.58-70.29,117.58-117.56c0-28.98-7.93-51.76-20.27-69.22
		c14.18-21.8,20.27-47.11,20.27-67.93c0-86.25-70.31-117.54-117.58-117.54h-10.96C-701.7-2994.6-643.5-3040-574.3-3040
		c86.45,0,156.76,70.31,156.76,156.74c0,27.05,21.91,48.98,48.98,48.98s48.98-21.93,48.98-48.98
		C-319.57-3023.71-433.83-3137.97-574.3-3137.97z"/>
	<path class="st0" d="M-300-2749.39h-19.57v-19.59c0-27.05-21.91-48.98-48.98-48.98s-48.98,21.93-48.98,48.98v19.59h-19.61
		c-27.07,0-48.98,21.93-48.98,48.98s21.91,48.98,48.98,48.98h19.61v19.59c0,27.05,21.91,48.98,48.98,48.98s48.98-21.93,48.98-48.98
		v-19.59H-300c27.07,0,48.98-21.93,48.98-48.98S-272.93-2749.39-300-2749.39z"/>
</g>
<g>
	<path class="st0" d="M-2479.97-4631.01c-17.97,0-35.27-9.92-43.85-27.09l-106.46-212.93h-177.62l117.5,64.08
		c38.24,20.88,56.68,63.22,45.92,105.41c-10.76,42.17-47.25,70.51-90.78,70.51H-3120c-16.97,0-32.75-8.79-41.68-23.22
		c-8.93-14.45-9.73-32.48-2.13-47.68l320-640c8.28-16.6,25.25-27.07,43.81-27.07s35.53,10.47,43.81,27.07l199.57,399.14
		c0.31,0.59,0.62,1.19,0.9,1.8l119.53,239.06c12.11,24.2,2.3,53.63-21.89,65.72C-2465.12-4632.67-2472.6-4631.01-2479.97-4631.01z
		 M-3040.75-4728.99h288.63l-117.5-64.08c-38.24-20.88-56.68-63.22-45.92-105.41c10.76-42.17,47.25-70.51,90.78-70.51h145.49
		L-2800-5210.46L-3040.75-4728.99z"/>
</g>
<path class="st0" d="M-3536.19-4686.41l-291.85-583.71c5.01-10.45,8.04-22.02,8.04-34.38c0-44.18-35.82-80-80-80s-80,35.82-80,80
	c0,12.36,3.04,23.93,8.04,34.38l-291.85,583.71c-7.6,15.2-6.8,33.22,2.13,47.68c8.93,14.43,24.71,23.22,41.68,23.22h71.11
	c27.05,0,48.98-21.93,48.98-48.98c0-24.39-17.81-44.61-41.15-48.36l73.81-147.61c38.12,51.25,98.61,84.95,167.25,84.95
	s129.12-33.7,167.25-84.95l73.81,147.61c-23.34,3.75-41.15,23.96-41.15,48.36c0,27.05,21.93,48.98,48.98,48.98h71.11
	c16.97,0,32.75-8.79,41.68-23.22C-3529.39-4653.18-3528.59-4671.21-3536.19-4686.41z M-3900-4873.48
	c-57.92,0-105.07-44.74-110.04-101.39l110.04-220.08l110.04,220.08C-3794.93-4918.22-3842.08-4873.48-3900-4873.48z"/>
<g>
	<path class="st0" d="M500,500"/>
</g>
<path class="st0" d="M-988.33-358.45"/>
<g>
	<path class="st0" d="M-812.33-389.45"/>
</g>
<g>
	<path class="st0" d="M-280-250.96h-228.55c-16.52,0-31.95-8.36-41.02-22.19L-600-350.38l-50.43,77.23
		c-9.06,13.83-24.49,22.19-41.02,22.19H-920c-27.07,0-48.98-21.91-48.98-48.98v-479.18c0-77.3,43.05-143.01,107.15-163.55
		c56.21-18.09,113.98,3.09,151.05,54.96l78.2,109.49c18.44,25.78,46.76,25.78,65.12,0l78.28-109.49
		c37.03-51.88,94.92-73.01,151.02-54.96c64.1,20.55,107.15,86.25,107.15,163.55v479.18C-231.02-272.88-252.93-250.96-280-250.96z
		 M-482.03-348.93h153.05v-430.2c0-39.65-20.27-64.22-39.1-70.27c-18.87-5.94-32.93,6.8-41.37,18.63l-78.28,109.49
		c-27.66,38.75-68.59,61.02-112.27,61.02s-84.61-22.27-112.3-61.02l-78.2-109.49c-8.48-11.8-22.5-24.57-41.41-18.63
		c-18.83,6.05-39.1,30.62-39.1,70.27v430.2h153.05l59.45-91.02l-73.95-113.2c-14.8-22.66-8.44-53.01,14.22-67.81
		c22.7-14.77,53.01-8.4,67.81,14.22l50.43,77.23l50.43-77.23c14.84-22.62,45.12-28.98,67.81-14.22
		c22.66,14.8,29.02,45.16,14.22,67.81l-73.95,113.2L-482.03-348.93z"/>
</g>
<g>
	<path class="st1" d="M1410.45,4715.77"/>
</g>
<path class="st0" d="M111.67-358.45"/>
<g>
	<path class="st0" d="M287.67-389.45"/>
</g>
<path class="st0" d="M757.73-919.2c-27.07,0-48.98,21.91-48.98,48.98v24.06h-90.94c-27.07,0-48.98,21.91-48.98,48.98
	s21.91,48.98,48.98,48.98h90.94v22.15l-128.01,97.62c-12.15,9.26-19.26,23.67-19.26,38.95v210.7H438.52v-210.7
	c0-15.27-7.11-29.69-19.26-38.95l-128.01-97.62v-95.2h60.62v28.24c0,27.07,21.91,48.98,48.98,48.98s48.98-21.91,48.98-48.98v-77.23
	c0-27.07-21.91-48.98-48.98-48.98H242.27c-27.07,0-48.98,21.91-48.98,48.98v168.44c0,15.27,7.11,29.69,19.26,38.95l128.01,97.62
	v235.43c0,27.07,21.91,48.98,48.98,48.98h220.94c27.07,0,48.98-21.91,48.98-48.98v-235.43l128.01-97.62
	c12.15-9.26,19.26-23.67,19.26-38.95v-168.44C806.72-897.29,784.8-919.2,757.73-919.2z"/>
<path class="st0" d="M-4288.33,741.55"/>
<g>
	<path class="st0" d="M-4112.33,710.55"/>
</g>
<path class="st0" d="M-3633.42,616.12c-6.56-20.16-25.37-33.83-46.58-33.83c-1.6,0-39.02-0.82-39.02-71.02
	c0-61.91,28.2-70.31,39.02-71.02c27.05,0,48.98-21.91,48.98-48.98v-200c0-27.07-21.93-48.98-48.98-48.98h-440
	c-27.05,0-48.98,21.91-48.98,48.98v200c0,27.07,21.93,48.98,48.98,48.98c1.6,0,39.02,0.82,39.02,71.02
	c0,61.91-28.2,70.31-39.02,71.02c-21.21,0-40.02,13.67-46.58,33.83c-6.56,20.2,0.61,42.3,17.77,54.77l220,160
	c8.57,6.25,18.69,9.38,28.81,9.38s20.23-3.12,28.81-9.38l220-160C-3634.02,658.42-3626.86,636.31-3633.42,616.12z M-3728.98,240.26
	v64.26c-3.64-0.86-7.11-2.22-11.02-2.22h-331.02v-62.03H-3728.98z M-3851.02,695.07V551.28c0-27.07-21.93-48.98-48.98-48.98
	s-48.98,21.91-48.98,48.98v143.79l-78.11-56.8c24.82-25.7,44.08-65.78,44.08-126.99c0-49.92-12.96-85.53-31.16-111.02h228.33
	c-18.2,25.49-31.16,61.09-31.16,111.02c0,61.21,19.26,101.29,44.08,126.99L-3851.02,695.07z"/>
<path class="st0" d="M-3188.33,741.55"/>
<g>
	<path class="st0" d="M-3012.33,710.55"/>
</g>
<g>
	<path class="st0" d="M-2656.88,456.8c-15.94-8.52-35.27-7.58-50.29,2.42l-92.83,61.91l-92.83-61.91
		c-15-9.96-34.36-10.94-50.29-2.42c-15.92,8.52-25.86,25.12-25.86,43.2v160c0,27.07,21.93,48.98,48.98,48.98
		s48.98-21.91,48.98-48.98v-68.48l43.85,29.26c16.45,10.94,37.89,10.94,54.34,0l43.85-29.26V660c0,27.07,21.93,48.98,48.98,48.98
		s48.98-21.91,48.98-48.98V500C-2631.02,481.91-2640.96,465.31-2656.88,456.8z"/>
	<path class="st0" d="M-2480,131.02h-640c-27.05,0-48.98,21.91-48.98,48.98v640c0,27.07,21.93,48.98,48.98,48.98h640
		c27.05,0,48.98-21.91,48.98-48.98V180C-2431.02,152.93-2452.95,131.02-2480,131.02z M-2528.98,228.98v62.03h-542.03v-62.03
		H-2528.98z M-3071.02,771.02V388.98h542.03v382.03H-3071.02z"/>
</g>
<path class="st0" d="M-2088.33,741.55"/>
<g>
	<path class="st0" d="M-1700,500"/>
</g>
<g>
	<path class="st0" d="M-1380,131.02h-640c-27.05,0-48.98,21.91-48.98,48.98v640c0,27.07,21.93,48.98,48.98,48.98h640
		c27.07,0,48.98-21.91,48.98-48.98V180C-1331.02,152.93-1352.93,131.02-1380,131.02z M-1428.98,228.98v62.03h-542.03v-62.03
		H-1428.98z M-1971.02,771.02V388.98h542.03v382.03H-1971.02z"/>
	<path class="st0" d="M-1620,611.02h-71.02V500c0-27.07-21.93-48.98-48.98-48.98s-48.98,21.91-48.98,48.98v160
		c0,27.07,21.93,48.98,48.98,48.98h120c27.07,0,48.98-21.91,48.98-48.98S-1592.93,611.02-1620,611.02z"/>
</g>
<path class="st0" d="M-988.33,741.55"/>
<g>
	<path class="st0" d="M-600,500"/>
</g>
<g>
	<path class="st0" d="M-860,167.68c-27.07,0-48.98,21.91-48.98,48.98v560c0,27.07,21.91,48.98,48.98,48.98s48.98-21.91,48.98-48.98
		v-560C-811.02,189.59-832.93,167.68-860,167.68z"/>
	<path class="st0" d="M-315.27,741.07l-335.51-196.41l339.69-248.48c21.84-15.98,26.6-46.6,10.62-68.44s-46.64-26.64-68.44-10.62
		l-400,292.58c-13.36,9.73-20.86,25.55-20.04,42.03c0.86,16.48,9.96,31.45,24.22,39.77l400,234.1c7.77,4.57,16.29,6.72,24.69,6.72
		c16.84,0,33.2-8.67,42.3-24.26C-284.06,784.75-291.91,754.71-315.27,741.07z"/>
	<circle class="st0" cx="-700" cy="336.66" r="80"/>
</g>
<path class="st0" d="M677.57,400l54.96-50.62c34.14-31.56,45.2-74.38,29.49-114.57c-19.92-50.9-76.72-83.79-144.73-83.79H279.95
	c-27.07,0-48.98,21.91-48.98,48.98v600c0,27.07,21.91,48.98,48.98,48.98s48.98-21.91,48.98-48.98V553.67h62.02l0.01,46.33
	c0,27.07,21.91,48.98,48.98,48.98H617.3c68.01,0,124.8-32.89,144.73-83.79c15.7-40.2,4.65-83.01-29.53-114.57L677.57,400z
	 M572.1,436.02l93.95,86.64c3.67,3.36,4.8,5.74,4.92,6.17c-0.55,5.35-17.73,22.19-53.67,22.19H488.94l-0.01-46.27
	c0-0.02,0.01-0.04,0.01-0.06s-0.01-0.04-0.01-0.06L488.9,400c0-27.07-21.95-48.98-48.98-48.98c-27.07,0-48.98,21.95-48.98,48.98
	l0.01,55.7h-62V248.98H617.3c35.94,0,53.12,16.84,53.67,22.03c-0.12,0.59-1.25,2.97-4.88,6.33l-93.98,86.64
	c-10.08,9.26-15.78,22.34-15.78,36.02S562.02,426.76,572.1,436.02z"/>
<path class="st2" d="M-2136.2-769.41"/>
<g>
	<path class="st0" d="M500-1819.87c-203.46,0-368.98,165.51-368.98,368.98c0,77.42,62.99,140.39,140.41,140.39
		s140.41-62.97,140.41-140.39c0-27.07-21.93-48.98-48.98-48.98s-48.98,21.91-48.98,48.98c0,23.4-19.04,42.42-42.44,42.42
		s-42.44-19.02-42.44-42.42c0-149.45,121.58-271.02,271.02-271.02c149.45,0,271.02,121.56,271.02,271.02
		c0,23.4-19.06,42.42-42.46,42.42s-42.42-19.02-42.42-42.42c0-27.07-21.91-48.98-48.98-48.98s-48.98,21.91-48.98,48.98
		c0,77.42,62.97,140.39,140.39,140.39s140.43-62.97,140.43-140.39C868.98-1654.37,703.48-1819.87,500-1819.87z"/>
	<path class="st0" d="M383.4-1841.94c9.57,9.57,22.11,14.34,34.65,14.34s25.08-4.77,34.65-14.34l47.3-47.3l47.3,47.3
		c9.57,9.57,22.11,14.34,34.65,14.34s25.08-4.77,34.65-14.34c19.14-19.14,19.14-50.16,0-69.3l-47.3-47.3l47.3-47.3
		c19.14-19.14,19.14-50.16,0-69.3s-50.16-19.14-69.3,0l-47.3,47.3l-47.3-47.3c-19.14-19.14-50.16-19.14-69.3,0
		c-19.12,19.14-19.12,50.16,0,69.3l47.3,47.3l-47.3,47.3C364.28-1892.1,364.28-1861.08,383.4-1841.94z"/>
	<path class="st0" d="M554.89-1516.61h-29.79c-13.87,0-25.11,11.24-25.11,25.11c0-13.87-11.24-25.11-25.11-25.11h-29.79
		c-13.87,0-25.11,11.24-25.11,25.11v149.79c0,13.86,11.24,25.1,25.11,25.1h29.79c13.87,0,25.11-11.24,25.11-25.1
		c0,13.86,11.24,25.1,25.11,25.1h29.79c13.87,0,25.11-11.24,25.11-25.1v-149.79C580-1505.37,568.76-1516.61,554.89-1516.61z"/>
</g>
<g>
	<g>
		<path class="st0" d="M-1400.95-5158.42"/>
	</g>
	<g>
		<path class="st0" d="M-1401.89-4839.95"/>
	</g>
	<g>
		<path class="st0" d="M-1679.05-4631.02c-203.46,0-368.98-165.53-368.98-368.98s165.53-368.98,368.98-368.98
			c132.19,0,255.08,71.39,320.62,186.29c13.44,23.5,5.23,53.42-18.24,66.84c-23.59,13.32-53.44,5.23-66.84-18.28
			c-48.2-84.41-138.44-136.88-235.55-136.88c-149.43,0-271.02,121.58-271.02,271.02s121.58,271.02,271.02,271.02
			c96.45,0,186.41-51.93,234.73-135.51c13.55-23.44,43.48-31.45,66.95-17.87c23.44,13.54,31.41,43.52,17.89,66.93
			C-1425.3-4701.68-1547.72-4631.02-1679.05-4631.02z"/>
	</g>
	<g>
		<path class="st0" d="M-1675.65-4794.41L-1675.65-4794.41c-12.99,0-25.45-5.16-34.65-14.34l-156.58-156.6
			c-19.12-19.14-19.12-50.16,0-69.3l156.58-156.6c18.4-18.36,50.9-18.36,69.3,0l156.6,156.6c19.14,19.14,19.14,50.16,0,69.3
			l-156.6,156.6C-1650.2-4799.57-1662.67-4794.41-1675.65-4794.41z M-1762.96-5000l87.3,87.32l87.3-87.32l-87.3-87.32L-1762.96-5000
			z"/>
	</g>
</g>
<g>
	<path class="st0" d="M-280-4651.02h-162.58c-27.07,0-48.98-21.93-48.98-48.98v-136.09l-88.4,39.63
		c-13.12,5.88-28.32,5.66-41.33-0.59l-76.13-36.7V-4700c0,27.05-21.91,48.98-48.98,48.98H-920c-27.07,0-48.98-21.93-48.98-48.98
		v-529.41c0-27.05,21.91-48.98,48.98-48.98h31.02v-21.6c0-27.05,21.91-48.98,48.98-48.98h160c27.07,0,48.98,21.93,48.98,48.98v21.6
		h62.03v-21.6c0-27.05,21.91-48.98,48.98-48.98h160c27.07,0,48.98,21.93,48.98,48.98v21.6H-280c27.07,0,48.98,21.93,48.98,48.98
		V-4700C-231.02-4672.95-252.93-4651.02-280-4651.02z M-393.59-4748.98h64.61v-431.45H-360c-27.07,0-48.98-21.93-48.98-48.98v-21.6
		h-62.03v21.6c0,27.05-21.91,48.98-48.98,48.98h-160c-27.07,0-48.98-21.93-48.98-48.98v-21.6h-62.03v21.6
		c0,27.05-21.91,48.98-48.98,48.98h-31.02v431.45h75.62v-162.77c0-16.86,8.67-32.52,22.93-41.48c14.3-8.93,32.19-9.94,47.34-2.64
		l125.86,60.68l136.64-61.27c15.12-6.8,32.66-5.45,46.68,3.59c13.95,9.02,22.34,24.49,22.34,41.11V-4748.98z"/>
</g>
<g>
	<g>
		<path class="st0" d="M180-4674.77c-27.07,0-48.98-21.93-48.98-48.98v-537.64c0-27.05,21.91-48.98,48.98-48.98
			s48.98,21.93,48.98,48.98v537.64C228.98-4696.7,207.07-4674.77,180-4674.77z"/>
	</g>
	<g>
		<path class="st0" d="M820-4667.27c-27.07,0-48.98-21.93-48.98-48.98v-477.89c-0.74-14.51-10-40.62-63.52-40.62
			c-56.21,0-63.12,49.59-63.52,70.9v358.01c0,55.7-43.01,138.59-161.48,138.59s-161.48-82.89-161.48-138.59v-357.89
			c0-27.05,21.91-48.98,48.98-48.98s48.98,21.93,48.98,48.98v357.89c0.74,14.51,10,40.62,63.52,40.62s62.77-26.11,63.52-41.68
			v-357.36c0-67.71,43.01-168.46,161.48-168.46s161.48,82.89,161.48,138.59v477.89C868.98-4689.2,847.07-4667.27,820-4667.27z"/>
	</g>
</g>
<g>
	<path class="st0" d="M890.16-3167.83c-11.91-9.3-27.5-12.58-42.03-8.91l-160,40c-26.25,6.56-42.23,33.14-35.66,59.39
		c6.56,26.27,33.24,42.17,59.41,35.64l99.14-24.77v514.49l-99.14-24.77c-26.13-6.6-52.81,9.39-59.41,35.64
		c-6.56,26.25,9.41,52.83,35.66,59.39l160,40c3.91,1,7.89,1.46,11.88,1.46c10.82,0,21.45-3.57,30.16-10.37
		c11.88-9.28,18.83-23.54,18.83-38.61v-640C908.98-3144.3,902.03-3158.56,890.16-3167.83z"/>
	<path class="st0" d="M748.98-2649.22v-280c0-27.05-21.91-48.98-48.98-48.98h-71.02v-71.02c0-27.05-21.91-48.98-48.98-48.98H420
		c-27.07,0-48.98,21.93-48.98,48.98v151.02H300c-27.07,0-48.98,21.93-48.98,48.98v160c0,27.05,21.91,48.98,48.98,48.98h71.02v62.03
		H300c-4.02,0-8.01,0.49-11.88,1.46l-99.14,24.77v-514.49l99.14,24.77c26.21,6.54,52.81-9.38,59.41-35.64
		c6.56-26.25-9.41-52.83-35.66-59.39l-160-40c-14.49-3.67-30.08-0.39-42.03,8.91c-11.88,9.28-18.83,23.54-18.83,38.61v640
		c0,15.08,6.95,29.34,18.83,38.61c8.71,6.8,19.34,10.37,30.16,10.37c3.98,0,7.97-0.47,11.88-1.46l154.14-38.54H420
		c27.07,0,48.98-21.93,48.98-48.98v-160c0-27.05-21.91-48.98-48.98-48.98h-71.02v-62.03h142.03v151.02
		c0,27.05,21.91,48.98,48.98,48.98h160C727.07-2600.24,748.98-2622.17,748.98-2649.22z M540-2898.21h-71.02v-102.03h62.03v71.02
		c0,11.8,4.14,22.6,11.09,31.05C541.41-2898.21,540.7-2898.21,540-2898.21z M651.02-2698.21h-62.03v-151.02
		c0-11.8-4.14-22.6-11.09-31.05c0.7,0.04,1.41,0.04,2.11,0.04h71.02V-2698.21z"/>
</g>
<path class="st0" d="M-3580-1962.3h-191.02v-57.7c0-27.07-21.93-48.98-48.98-48.98h-400c-27.05,0-48.98,21.91-48.98,48.98v533.32
	c0,27.07,21.93,48.98,48.98,48.98h191.02v57.7c0,27.07,21.93,48.98,48.98,48.98h400c27.05,0,48.98-21.91,48.98-48.98v-533.32
	C-3531.02-1940.39-3552.95-1962.3-3580-1962.3z M-4171.02-1535.66v-435.35h302.03v8.71H-3980c-27.05,0-48.98,21.91-48.98,48.98
	v377.66H-4171.02z M-3628.98-1428.98h-302.03v-435.35h302.03V-1428.98z"/>
<path class="st0" d="M-2440-1999.73c0-33.24-27.03-60.27-60.27-60.27h-599.45c-33.24,0-60.27,27.03-60.27,60.27v119.22
	c0,9.24,2.26,17.89,5.98,25.72c-3.73,7.83-5.98,16.49-5.98,25.72v98.36c0,13.43,4.56,25.71,12.01,35.74
	c-7.45,10.03-12.01,22.32-12.01,35.74V-1540c0,7.3,1.5,14.21,3.88,20.68c-2.39,6.48-3.88,13.39-3.88,20.68v98.36
	c0,33.24,27.03,60.27,60.27,60.27h172.79c33.24,0,60.27-27.03,60.27-60.27v-79.45h133.32v79.45c0,33.24,27.03,60.27,60.27,60.27
	h172.79c33.24,0,60.27-27.03,60.27-60.27v-98.36c0-7.3-1.5-14.21-3.88-20.68c2.39-6.48,3.88-13.39,3.88-20.68v-119.22
	c0-13.43-4.56-25.71-12.01-35.74c7.45-10.03,12.01-22.32,12.01-35.74v-98.36c0-9.24-2.26-17.89-5.98-25.72
	c3.73-7.83,5.98-16.49,5.98-25.72V-1999.73z M-3080-1809.34h133.34v58.91H-3080V-1809.34z M-2946.66-1420H-3080v-58.91h133.34V-1420
	z M-2520-1420h-133.34v-58.91H-2520V-1420z M-2520-1559.73h-560v-79.77h560V-1559.73z M-2866.66-1750.43v-58.91h133.32v58.91
	H-2866.66z M-2520-1750.43h-133.34v-58.91H-2520V-1750.43z M-2520-1900.23h-560V-1980h560V-1900.23z"/>
<path class="st0" d="M-1620-2068.98h-160c-139.63,0-248.98,162.07-248.98,368.98s109.36,368.98,248.98,368.98h160
	c139.61,0,248.98-162.07,248.98-368.98S-1480.39-2068.98-1620-2068.98z M-1931.02-1700c0-144.38,70.57-271.02,151.02-271.02
	s151.02,126.64,151.02,271.02s-70.57,271.02-151.02,271.02S-1931.02-1555.62-1931.02-1700z M-1609-1430.06
	c48.15-66.88,77.99-162.19,77.99-269.94s-29.84-203.07-77.99-269.94c75.74,10.89,140.02,132.21,140.02,269.94
	S-1533.26-1440.94-1609-1430.06z"/>
<path class="st0" d="M-205.35-1374.64l-78.77-78.77c8.22-17.88,13.11-37.59,13.11-58.53v-376.09c0-77.73-63.2-140.94-140.94-140.94
	h-376.09c-20.94,0-40.65,4.89-58.53,13.11l-78.77-78.77c-19.14-19.14-50.16-19.14-69.3,0s-19.14,50.16,0,69.3l78.77,78.77
	c-8.22,17.88-13.11,37.59-13.11,58.53v376.09c0,77.73,63.2,140.94,140.94,140.94h376.09c20.94,0,40.65-4.89,58.53-13.11l78.77,78.77
	c9.57,9.57,22.11,14.34,34.65,14.34s25.08-4.77,34.65-14.34C-186.21-1324.48-186.21-1355.5-205.35-1374.64z M-411.95-1931.01
	c23.67,0,42.97,19.3,42.97,42.97v349.77l-119.16-119.16c5.05-13.27,8.14-27.52,8.14-42.56c0-66.27-53.73-120-120-120
	c-15.04,0-29.29,3.09-42.56,8.14l-119.16-119.16H-411.95z M-788.05-1468.97c-23.67,0-42.97-19.3-42.97-42.97v-349.77l119.16,119.16
	c-5.05,13.27-8.14,27.52-8.14,42.56c0,66.27,53.73,120,120,120c15.04,0,29.29-3.09,42.56-8.14l119.16,119.16H-788.05z"/>
<g>
	<path class="st0" d="M-3980-308.98h-191.02v-199.92c0-27.07-21.91-48.98-48.98-48.98s-48.98,21.91-48.98,48.98V-260
		c0,27.07,21.91,48.98,48.98,48.98h240c27.07,0,48.98-21.91,48.98-48.98S-3952.93-308.98-3980-308.98z"/>
	<path class="st0" d="M-3900-988.98c-179.85,0-332.67,122.19-363.49,290.57c0,0.02-0.02,0.03-0.02,0.05
		c-3.63,19.88-5.47,40.27-5.47,60.59c0,27.07,21.91,48.98,48.98,48.98s48.98-21.91,48.98-48.98c0-14.41,1.33-28.87,3.91-42.93
		c0-0.01,0-0.02,0-0.04v0c22.23-121.84,134.57-210.27,267.11-210.27c149.45,0,271.02,113.59,271.02,253.24v328.79h-142.03V-437.7
		h71.02c27.07,0,48.98-21.91,48.98-48.98v-151.09c0-27.07-21.91-48.98-48.98-48.98h-71.02v-102.15c0-27.07-21.91-48.98-48.98-48.98
		h-160c-27.07,0-48.98,21.91-48.98,48.98v102.15H-4100c-27.07,0-48.98,21.91-48.98,48.98v151.09c0,27.07,21.91,48.98,48.98,48.98
		h71.02v57.7c0,27.07,21.91,48.98,48.98,48.98s48.98-21.91,48.98-48.98v-106.68c0-27.07-21.91-48.98-48.98-48.98h-71.02v-53.12
		h71.02c27.07,0,48.98-21.91,48.98-48.98v-102.15h62.03v102.15c0,27.07,21.91,48.98,48.98,48.98h71.02v53.12H-3820
		c-27.07,0-48.98,21.91-48.98,48.98V-260c0,27.07,21.91,48.98,48.98,48.98h240c27.07,0,48.98-21.91,48.98-48.98v-377.77
		C-3531.02-831.45-3696.52-988.98-3900-988.98z"/>
</g>
<path class="st0" d="M-2431.8-781.92l-120-120c-17.97-17.97-46.64-19.22-66.15-2.89l-47.85,40.2l-56.78,3.01
	c-12.09,0.62-23.52,5.7-32.07,14.26l-15.14,15.14l-22.95-17.48c-12.93-9.8-29.88-12.66-45.2-7.5l-56.13,18.75l-63.42-63.48
	c-9.18-9.18-21.64-14.34-34.65-14.34c-12.99,0-25.45,5.16-34.65,14.34l-141.43,141.45c-19.12,19.14-19.12,50.16,0,69.3l48.4,48.4
	l24.65,73.87c2.36,7.11,6.35,13.59,11.62,18.91l248.69,251.72c9.57,9.69,22.21,14.57,34.84,14.57c12.05,0,24.12-4.41,33.57-13.32
	l86.79-81.67c3.75-2.13,7.64-3.99,10.84-7.19l197.99-198.01c9.32-9.34,14.49-22.03,14.34-35.2l-0.76-68.09l25.43-25.43
	C-2412.68-731.77-2412.68-762.78-2431.8-781.92z M-2798.75-401.14l-207.07-209.61l-24.71-74.02c-2.4-7.19-6.45-13.75-11.82-19.14
	l-21.93-21.91l72.15-72.15l50.2,50.23c13.12,13.12,32.6,17.66,50.16,11.84l60.29-20.12l37.21,28.32l-16.93,16.91
	c-17.62,17.62-19.2,45.66-3.67,65.16l90.16,113.2l15.62,46.91L-2798.75-401.14z M-2541.09-741.92c-9.32,9.34-14.49,22.03-14.34,35.2
	l0.76,68.09l-76.63,76.64l-3.22-9.65c-1.82-5.43-4.59-10.51-8.16-15l-68.3-85.78l25.62-25.62c9.98-10,15.18-23.83,14.24-37.93
	c-0.77-11.34-6.27-21.32-13.92-29.51l40.76-2.17c10.62-0.55,20.78-4.53,28.93-11.37l26.02-21.84l53.61,53.59L-2541.09-741.92z"/>
<g>
	<path class="st0" d="M-1848.85-198.87c-61.02,0-113.22-36.95-133.77-88.87H-2020c-27.05,0-48.98-21.91-48.98-48.98v-242.11
		c0-27.07,21.93-48.98,48.98-48.98c24.88,0,45.14-17.89,45.14-39.88s-20.25-39.92-45.14-39.92c-27.05,0-48.98-21.91-48.98-48.98
		v-106.64c0-27.07,21.93-48.98,48.98-48.98h280.33c20.55-51.91,72.77-88.91,133.79-88.91s113.24,36.99,133.79,88.91h92.09
		c27.05,0,48.98,21.91,48.98,48.98v241.64c0,27.07-21.93,48.98-48.98,48.98c-24.88,0-45.14,17.89-45.14,39.88
		s20.25,39.92,45.14,39.92c27.05,0,48.98,21.91,48.98,48.98v107.11c0,27.07-21.93,48.98-48.98,48.98h-335.08
		C-1735.62-235.82-1787.83-198.87-1848.85-198.87z M-1971.02-385.7h28.05c27.05,0,48.98,21.91,48.98,48.98
		c0,21.99,20.25,39.88,45.14,39.88s45.14-17.89,45.14-39.88c0-27.07,21.93-48.98,48.98-48.98h325.74v-17.46
		c-54.86-19.3-94.12-70.12-94.12-129.57s39.26-110.23,94.12-129.53v-151.99h-82.77c-27.05,0-48.98-21.91-48.98-48.98
		c0-21.99-20.25-39.92-45.14-39.92s-45.14,17.93-45.14,39.92c0,27.07-21.93,48.98-48.98,48.98h-271.02v16.99
		c54.86,19.3,94.12,70.12,94.12,129.57s-39.26,110.23-94.12,129.53V-385.7z M-1462.77-863.24h0.41H-1462.77z"/>
</g>
<g>
	<path class="st0" d="M-2790-4300c-220.91,0-400,179.09-400,400s179.09,400,400,400c220.92,0,400-179.09,400-400
		S-2569.08-4300-2790-4300z M-2470-3900c0,42.45-8.49,82.91-23.56,120h-89.23c20.3-33.53,32.81-74.8,32.81-120
		s-12.51-86.47-32.81-120h89.24C-2478.49-3982.9-2470-3942.45-2470-3900z M-3110-3900c0-42.45,8.49-82.9,23.55-120h89.28
		c-20.3,33.53-32.81,74.8-32.81,120s12.51,86.47,32.81,120h-89.27C-3101.51-3817.09-3110-3857.55-3110-3900z M-2790-3580
		c-100.78,0-190.7-46.95-249.4-120h169.42c22.11,0,40-17.89,40-40s-17.89-40-40-40c-43.36,0-80-54.96-80-120s36.64-120,80-120
		c22.11,0,40-17.89,40-40s-17.89-40-40-40h-169.43c58.7-73.06,148.62-120,249.41-120s190.71,46.95,249.41,120h-169.39
		c-22.11,0-40,17.89-40,40s17.89,40,40,40c43.36,0,80,54.96,80,120s-36.64,120-80,120c-22.11,0-40,17.89-40,40s17.89,40,40,40
		h169.38C-2599.3-3626.95-2689.22-3580-2790-3580z"/>
	<path class="st0" d="M-2730.41-3820v-160c0-13.87-7.19-26.72-18.98-34.02c-11.84-7.34-26.52-7.97-38.91-1.76l-80,40
		c-19.77,9.88-27.77,33.91-17.89,53.67c9.92,19.77,33.95,27.7,53.67,17.89l22.11-11.05v95.27c0,22.11,17.89,40,40,40
		S-2730.41-3797.89-2730.41-3820z"/>
</g>
</svg>
